<?xml version="1.0" encoding="utf-8"?>
<!-- Generator: Adobe Illustrator 27.7.0, SVG Export Plug-In . SVG Version: 6.00 Build 0)  -->
<svg version="1.1" id="Layer_1" xmlns="http://www.w3.org/2000/svg" xmlns:xlink="http://www.w3.org/1999/xlink" x="0px" y="0px"
	 viewBox="0 0 512 512" style="enable-background:new 0 0 512 512;" xml:space="preserve">
<g>
	<path d="M23.27,302.55h209.45c12.85,0,23.27-10.42,23.27-23.27c0-12.85-10.42-23.27-23.27-23.27H23.27C10.42,256,0,266.42,0,279.27
		C0,292.13,10.42,302.55,23.27,302.55"/>
	<path d="M325.82,302.55h162.91c12.85,0,23.27-10.42,23.27-23.27c0-12.85-10.42-23.27-23.27-23.27H325.82
		c-12.85,0-23.27,10.42-23.27,23.27C302.55,292.13,312.96,302.55,325.82,302.55"/>
	<path d="M209.45,116.36v325.82c0,12.85,10.42,23.27,23.27,23.27c12.85,0,23.27-10.42,23.27-23.27V116.36
		c0-12.85-10.42-23.27-23.27-23.27C219.87,93.09,209.45,103.51,209.45,116.36"/>
	<path d="M302.55,209.45v139.64c0,12.85,10.42,23.27,23.27,23.27s23.27-10.42,23.27-23.27V209.45c0-12.85-10.42-23.27-23.27-23.27
		S302.55,196.6,302.55,209.45"/>
	<path d="M46.55,139.64h93.09c12.85,0,23.27-10.42,23.27-23.27c0-12.85-10.42-23.27-23.27-23.27H46.55
		c-12.85,0-23.27,10.42-23.27,23.27C23.27,129.22,33.69,139.64,46.55,139.64"/>
	<path d="M69.82,69.82v93.09c0,12.85,10.42,23.27,23.27,23.27c12.85,0,23.27-10.42,23.27-23.27V69.82
		c0-12.85-10.42-23.27-23.27-23.27C80.24,46.55,69.82,56.96,69.82,69.82"/>
</g>
</svg>
